HIERARCHY
ROOT ROOT
{
	OFFSET 0.000000 56.020000 -5.659234
	CHANNELS 6 Xposition Yposition Zposition Xrotation Yrotation Zrotation 
	JOINT C_spine0001_bind_JNT
	{
		OFFSET 0.000000 1.618999 0.000000
		CHANNELS 3 Xrotation Yrotation Zrotation
		JOINT C_spine0002_bind_JNT
		{
			OFFSET 0.000000 4.942001 0.000001
			CHANNELS 3 Xrotation Yrotation Zrotation
			JOINT C_spine0003_bind_JNT
			{
				OFFSET 0.000000 4.942001 -0.000000
				CHANNELS 3 Xrotation Yrotation Zrotation
				JOINT C_neck0001_bind_JNT
				{
					OFFSET 0.000000 17.026009 -0.000000
					CHANNELS 3 Xrotation Yrotation Zrotation
					JOINT C_neck0002_bind_JNT
					{
						OFFSET 0.000000 3.249985 0.000000
						CHANNELS 3 Xrotation Yrotation Zrotation
						JOINT C_head_bind_JNT
						{
							OFFSET 0.000000 5.278008 0.000000
							CHANNELS 3 Xrotation Yrotation Zrotation
							End Site
							{
								OFFSET 0.000000 0.000000 0.000000
							}
						}
					}
				}
				JOINT L_clavicle_bind_JNT
				{
					OFFSET 4.590000 12.067001 0.834000
					CHANNELS 3 Xrotation Yrotation Zrotation
					JOINT L_armUpper0001_bind_JNT
					{
						OFFSET 7.812635 0.512001 -3.452945
						CHANNELS 3 Xrotation Yrotation Zrotation
						JOINT L_armLower0001_bind_JNT
						{
							OFFSET 15.265892 -6.552116 -0.058157
							CHANNELS 3 Xrotation Yrotation Zrotation
							JOINT L_hand0001_bind_JNT
							{
								OFFSET 14.747667 -6.369995 5.049225
								CHANNELS 3 Xrotation Yrotation Zrotation
								End Site
								{
									OFFSET 0.000000 0.000000 0.000000
								}
							}
						}
					}
				}
				JOINT R_clavicle_bind_JNT
				{
					OFFSET -4.590000 12.067001 0.834000
					CHANNELS 3 Xrotation Yrotation Zrotation
					JOINT R_armUpper0001_bind_JNT
					{
						OFFSET -7.812635 0.512001 -3.452945
						CHANNELS 3 Xrotation Yrotation Zrotation
						JOINT R_armLower0001_bind_JNT
						{
							OFFSET -15.265890 -6.552124 -0.058160
							CHANNELS 3 Xrotation Yrotation Zrotation
							JOINT R_hand0001_bind_JNT
							{
								OFFSET -14.746784 -6.369629 5.048937
								CHANNELS 3 Xrotation Yrotation Zrotation
								End Site
								{
									OFFSET 0.000000 0.000000 0.000000
								}
							}
						}
					}
				}
			}
		}
	}
	JOINT C_pelvis0001_bind_JNT
	{
		OFFSET -0.000000 0.000000 0.000000
		CHANNELS 3 Xrotation Yrotation Zrotation
		JOINT L_legUpper0001_bind_JNT
		{
			OFFSET 6.599999 -6.027000 0.539000
			CHANNELS 3 Xrotation Yrotation Zrotation
			JOINT L_legLower0001_bind_JNT
			{
				OFFSET -0.140713 -19.187443 0.040261
				CHANNELS 3 Xrotation Yrotation Zrotation
				JOINT L_foot0001_bind_JNT
				{
					OFFSET -0.132215 -18.028637 -1.138370
					CHANNELS 3 Xrotation Yrotation Zrotation
					JOINT L_foot0002_bind_JNT
					{
						OFFSET 0.007014 -4.693133 9.886524
						CHANNELS 3 Xrotation Yrotation Zrotation
						End Site
						{
							OFFSET 0.000000 0.000000 0.000000
						}
					}
				}
			}
		}
		JOINT R_legUpper0001_bind_JNT
		{
			OFFSET -6.599999 -6.027000 0.539000
			CHANNELS 3 Xrotation Yrotation Zrotation
			JOINT R_legLower0001_bind_JNT
			{
				OFFSET 0.140710 -19.187164 0.040550
				CHANNELS 3 Xrotation Yrotation Zrotation
				JOINT R_foot0001_bind_JNT
				{
					OFFSET 0.132215 -18.028633 -1.138362
					CHANNELS 3 Xrotation Yrotation Zrotation
					JOINT R_foot0002_bind_JNT
					{
						OFFSET -0.007014 -4.693128 9.886505
						CHANNELS 3 Xrotation Yrotation Zrotation
						End Site
						{
							OFFSET 0.000000 0.000000 0.000000
						}
					}
				}
			}
		}
	}
}
MOTION
Frames: 12
Frame Time: 0.033333
-7.586026 47.903034 24.001461 0.031582 -9.121759 -0.021147 1.357321 7.686251 -2.621652 -6.619164 6.273614 -2.022652 3.843465 6.702916 -4.001093 14.162339 -5.867136 2.199335 0.122690 -0.576171 -0.128938 -8.719769 -12.129002 4.406468 14.240634 0.432032 -1.737938 -21.197165 14.091803 -54.649681 4.434576 15.528019 0.643502 -4.169034 -8.039003 -23.400518 8.680591 3.261051 -8.917529 -34.471539 11.442749 78.181992 8.598063 -19.914686 6.721894 0.509055 7.068105 28.853203 5.265547 -3.789410 3.675748 -24.003979 -5.917750 -7.610893 16.229635 -1.996211 1.330756 -0.319158 -18.215042 -7.068605 -0.673666 -2.843440 1.592722 8.682590 5.768438 4.188031 18.768020 -1.078069 -0.293739 3.776691 12.859904 0.473843 -32.080219 5.749868 -18.485928
-7.958325 48.057308 25.325447 0.029619 -10.355996 -0.025695 1.127672 8.204632 -2.661110 -6.600789 6.180444 -1.954808 3.601675 6.781999 -3.939527 14.198600 -6.002731 2.112305 0.247262 -0.562916 -0.214374 -8.298247 -12.129232 4.833955 14.393175 0.279532 -1.695865 -20.815136 14.570112 -55.352039 3.689797 15.210578 0.733260 -4.320987 -8.428657 -23.138151 8.812827 3.222832 -9.111244 -34.346027 11.680630 78.593269 8.934896 -19.346924 6.974080 0.663974 7.250800 28.943113 5.414834 -3.416644 3.752790 -22.454498 -5.907023 -7.505504 16.516157 -1.767783 1.120691 -1.568802 -17.619951 -6.742916 -0.385183 -3.023094 1.937820 7.568031 4.942978 3.130268 20.856789 -1.804930 0.434620 9.091746 15.857812 2.709336 -31.936026 4.996419 -22.434757
-8.275279 48.141693 26.454370 0.031183 -11.447111 -0.032939 1.029772 7.794569 -2.733559 -6.625309 6.076420 -1.895496 3.571040 6.548661 -3.901209 14.007561 -5.780762 2.085502 0.249551 -0.556922 -0.085008 -8.080158 -11.858743 4.605001 13.962008 0.465901 -1.292926 -20.243849 14.756246 -56.309399 2.851532 15.322644 1.276581 -4.305856 -8.800809 -23.479458 8.561822 3.587139 -9.231968 -33.701351 11.669681 78.568123 9.255529 -18.299217 7.214912 0.934325 7.225938 28.952368 5.384078 -3.559638 3.728362 -21.424194 -5.573203 -7.345946 17.294081 -1.518214 0.684953 -2.699745 -16.833035 -6.013159 -0.258188 -2.929430 1.780331 6.510799 4.096316 1.889987 23.278010 -2.201841 1.502993 14.824203 19.267067 4.246828 -29.422829 1.584547 -24.671593
-8.548338 48.173023 27.599476 0.032392 -12.166367 -0.034122 0.801846 6.894651 -2.576430 -6.686142 5.753757 -1.858568 3.415143 6.253389 -3.662248 14.007552 -5.434242 2.026530 0.239131 -0.720743 -0.327748 -8.404337 -10.664535 4.686713 14.151381 0.037774 -0.943398 -20.113272 14.973775 -57.599895 2.567012 16.088346 1.955395 -4.953692 -9.133942 -23.216524 8.451797 3.591709 -9.239177 -33.162670 12.194263 78.061729 9.042089 -17.342173 7.448148 1.646981 6.719978 28.882055 5.282542 -3.995401 3.641432 -19.957623 -5.169609 -7.571301 17.862946 -0.963735 0.638732 -3.855692 -16.010292 -5.091072 -0.606380 -2.942582 1.604292 4.297198 3.645473 0.087898 27.828098 -2.426549 2.970519 18.790665 22.963251 6.589477 -24.618225 -2.917946 -23.462069
-8.857695 48.181892 28.648352 0.026789 -13.053947 -0.043299 0.421287 5.526814 -2.402383 -6.470186 5.295707 -1.829731 3.268067 5.653664 -3.322506 13.900615 -4.862017 1.763078 0.163240 -0.433040 -0.279251 -8.506775 -9.925048 4.277647 14.199338 -0.320446 -0.472695 -20.195181 14.542333 -58.601532 1.970935 17.699738 2.313923 -5.401152 -8.900537 -23.214359 7.935965 3.746355 -8.616693 -31.515051 12.362356 77.249756 9.270363 -15.896295 7.642002 2.257475 6.685869 28.687551 4.777954 -4.730079 3.669405 -18.382530 -4.541430 -7.591523 18.198854 -0.836542 0.609314 -4.799988 -15.732118 -4.277632 -1.100559 -2.384105 1.334306 2.640620 3.056721 -1.205660 32.170300 -1.785767 3.505875 19.777716 25.121927 8.486641 -16.526131 -6.328303 -18.756996
-9.170803 48.238068 29.657282 0.031892 -13.271116 -0.036906 -0.038112 3.046870 -2.179275 -6.236661 4.793900 -1.731698 3.332184 5.030020 -2.816565 14.035721 -4.423608 1.753859 0.068512 -0.207367 -0.411380 -9.309134 -9.017736 4.063463 14.309927 -1.189733 -0.385138 -20.453970 13.976180 -59.326145 1.623434 19.660782 2.610022 -5.822291 -8.794847 -22.778847 7.179900 3.602503 -7.704932 -29.450018 12.632552 75.689682 9.151003 -14.666930 7.694553 1.799790 6.600521 28.876730 4.235792 -6.341664 3.340158 -16.526428 -3.629510 -6.957581 18.190298 -0.906267 0.673427 -5.279488 -14.761004 -3.934167 -1.478429 -2.215450 2.224538 0.549089 2.393778 -1.853709 43.882729 -1.217509 3.846618 14.079173 23.494867 10.001117 -10.837315 -6.396272 -13.342969
-9.459879 48.559887 30.730534 0.039671 -13.577422 -0.041404 -0.254327 0.133348 -1.902223 -6.192864 4.081446 -1.534392 3.360853 4.178751 -2.425921 13.746507 -3.676914 1.595582 0.184159 -0.028740 -0.448501 -9.605945 -7.933240 3.727449 14.228465 -1.960061 -0.249369 -20.438154 12.943449 -60.002541 1.456699 21.343039 2.816634 -6.036408 -8.293101 -23.086483 6.135666 4.021003 -6.412846 -26.635427 12.126800 73.773087 9.217462 -13.850636 7.896153 1.628084 6.523099 27.993052 3.684889 -8.102705 2.984943 -13.897605 -2.952734 -6.441226 17.347355 -0.473769 0.580706 -5.468153 -14.088988 -3.537466 -1.999340 -2.497086 2.950273 -2.601232 1.308262 -2.535569 48.633759 -1.051984 3.247900 12.921871 19.453468 9.419235 -9.630576 -5.474565 -10.046697
-9.833061 48.854961 31.833624 0.043089 -13.423233 -0.041005 -0.696227 -3.577688 -1.634149 -6.034294 3.305606 -1.351914 3.429217 3.287765 -1.931275 13.744289 -2.951012 1.350562 0.173940 0.076449 -0.380565 -9.971851 -6.169034 3.550877 14.117855 -2.623136 -0.528579 -21.092657 11.596907 -60.231167 2.167612 23.378721 2.498525 -5.901708 -8.170218 -22.923546 5.428187 4.324708 -5.167283 -24.148865 11.612129 71.745293 8.809350 -13.946355 7.749147 0.974537 7.124161 27.933495 2.783315 -10.459670 1.857412 -10.518039 -2.272001 -4.964217 15.594720 -0.117570 0.572188 -4.892274 -13.030544 -3.721494 -2.664356 -2.460978 3.953180 -5.264221 0.992547 -2.768803 52.449425 -0.733110 2.006749 10.000988 13.024104 8.242043 -11.020100 -2.978190 -7.972004
-10.327953 49.304329 32.814339 0.036458 -13.289353 -0.038718 -0.737206 -7.423764 -1.351817 -6.277986 2.474537 -1.199878 3.577027 2.501473 -1.471497 13.954786 -1.972481 1.139634 -0.063220 -0.026859 -0.318801 -10.102232 -4.206421 3.291182 13.400334 -3.681246 -0.431421 -20.949879 10.370575 -59.999847 3.192489 24.876038 1.819082 -5.261038 -7.308198 -23.691652 4.611640 4.166287 -3.856421 -21.235481 10.780478 69.583687 8.627008 -14.131542 7.832987 0.538081 6.963287 26.924362 2.252147 -12.593234 0.959926 -7.497834 -2.046677 -3.909943 13.934459 0.535995 0.215132 -3.864829 -12.007133 -3.376613 -3.868155 -2.909612 4.545647 -8.523263 1.415430 -3.019069 54.272526 -0.509508 1.661341 6.702612 8.703872 6.302994 -12.977323 -1.425195 -7.284699
-10.862829 49.537804 33.736080 0.042511 -12.468538 -0.033507 -0.868280 -12.071324 -1.038949 -6.358159 1.655811 -1.158165 3.738071 1.394624 -1.122950 13.693370 -0.886623 0.883416 -0.020566 -0.085090 -0.102095 -10.610607 -2.020618 3.312192 12.794786 -4.294770 -0.118762 -21.415648 9.394473 -59.693874 5.108994 26.020758 0.679073 -4.392079 -6.532866 -24.505291 3.916820 4.320789 -3.062800 -18.859346 9.365662 68.025101 8.205118 -15.537083 7.831847 0.128233 6.749794 25.667458 1.823746 -15.316255 0.030459 -4.900221 -1.751624 -2.712445 12.958606 1.040004 -0.162943 -3.310874 -10.940455 -3.480171 -5.400102 -2.866445 5.072552 -11.637105 2.094496 -2.816103 53.954910 -0.631191 0.979869 2.043937 5.465010 3.567412 -13.552863 0.466832 -5.102790
-11.442652 49.798630 34.589600 0.038255 -12.234159 -0.033821 -0.745694 -15.815200 -0.654889 -6.342692 0.605407 -0.947196 3.780518 0.281350 -0.988881 13.575585 0.288930 1.003529 0.020433 0.011343 -0.251399 -10.930862 -0.348281 2.979605 12.065765 -4.599935 0.248827 -21.453037 8.075007 -59.197163 6.972354 26.617598 -0.745295 -3.775947 -5.775455 -25.556221 3.513669 4.309367 -2.429720 -16.585461 7.644883 66.563591 8.044975 -16.890774 7.431129 -0.224738 6.683289 24.130463 1.631223 -17.448999 -0.689387 -3.068109 -1.206963 -1.894754 11.920443 1.527144 0.039958 -2.516759 -9.968458 -3.933647 -6.802603 -3.006609 5.472960 -13.965425 2.801434 -2.390078 50.735901 -0.583657 -0.057199 -0.836025 4.751989 2.335333 -11.633236 1.118815 -2.990497
-12.005579 49.872292 35.392609 0.044543 -11.770674 -0.031535 -0.758232 -19.991632 -0.694249 -6.287303 -0.293665 -0.606886 3.943777 -0.712818 -0.702541 13.118040 1.482769 0.816546 0.120921 -0.012441 -0.222387 -11.539490 2.068761 2.859879 11.269540 -4.752657 1.098052 -21.619169 7.204568 -59.189331 8.698422 26.751993 -1.664097 -3.195735 -5.054498 -26.813595 3.496908 4.212138 -2.047695 -14.833968 5.745632 65.544136 7.724805 -18.844366 6.526235 -0.829103 7.110590 22.431450 1.461783 -19.704037 -1.238564 -1.289337 -0.476060 -1.053036 11.373769 1.723046 -0.200242 -1.929502 -9.850822 -3.652986 -8.659499 -2.540290 5.293495 -15.794387 3.956671 -2.209410 45.615067 0.230652 -1.849896 -3.222620 5.994720 1.300986 -10.224406 1.703076 -1.318310
